<?xml version="1.0" encoding="UTF-8"?>
<svg width="24px" height="24px" viewBox="0 0 24 24" version="1.1" xmlns="http://www.w3.org/2000/svg" xmlns:xlink="http://www.w3.org/1999/xlink">
    <!-- Generator: Sketch 53.1 (72631) - https://sketchapp.com -->
    <title>[Logo] Facebook@1x</title>
    <desc>Created with Sketch.</desc>
    <g id="UI-Screens" stroke="none" stroke-width="1" fill="none" fill-rule="evenodd">
        <g id="[Logo]-Facebook" transform="translate(0.046693, 0.000000)" fill-rule="nonzero">
            <g id="Group">
                <path d="M22.5871751,23.9067082 C23.3157665,23.9067082 23.9066148,23.3159533 23.9066148,22.5872685 L23.9066148,1.31943969 C23.9066148,0.590661479 23.3157665,0 22.5871751,0 L1.31943969,0 C0.590568093,0 0,0.590661479 0,1.31943969 L0,22.5872685 C0,23.3159533 0.590568093,23.9067082 1.31943969,23.9067082 L22.5871751,23.9067082" id="Path" fill="#485359"></path>
                <path d="M16.4950973,23.9067082 L16.4950973,14.6487782 L19.602677,14.6487782 L20.0679222,11.0408405 L16.4950973,11.0408405 L16.4950973,8.73721401 C16.4950973,7.692607 16.7852451,6.98073152 18.2832374,6.98073152 L20.1938054,6.97989105 L20.1938054,3.75296498 C19.8632218,3.70898054 18.7291518,3.6107393 17.4098054,3.6107393 C14.6551284,3.6107393 12.7693074,5.29214008 12.7693074,8.38001556 L12.7693074,11.0408405 L9.65378988,11.0408405 L9.65378988,14.6487782 L12.7693074,14.6487782 L12.7693074,23.9067082 L16.4950973,23.9067082" id="Path" fill="#FFFFFF"></path>
            </g>
        </g>
    </g>
</svg>