<?xml version="1.0" encoding="UTF-8"?>
<svg width="38px" height="38px" viewBox="0 0 38 38" version="1.1" xmlns="http://www.w3.org/2000/svg" xmlns:xlink="http://www.w3.org/1999/xlink">
    <!-- Generator: Sketch 53.1 (72631) - https://sketchapp.com -->
    <title>Group 9@1x</title>
    <desc>Created with Sketch.</desc>
    <g id="UI-Screens" stroke="none" stroke-width="1" fill="none" fill-rule="evenodd">
        <g id="Group-9">
            <circle id="Oval-Copy-5" fill="#F6F7FB" cx="19" cy="19" r="19"></circle>
            <g id="noun_Badge_813559" transform="translate(12.000000, 8.000000)" fill="#8595A6" fill-rule="nonzero">
                <path d="M11.5530842,18.0955476 C11.3368293,18.0102953 11.0896747,18.0976589 10.9789062,18.2985066 L10.1435496,19.7496636 C10.0447431,19.9187698 9.85417747,20.0157996 9.6560442,19.9978853 C9.45791092,19.979971 9.28871482,19.8504132 9.2232064,19.6664504 L8.07692308,16.419106 C8.88771532,16.2960189 9.61305277,15.856719 10.0875828,15.2013519 C10.1062795,15.1758619 10.1363723,15.1607517 10.1684237,15.1607601 L10.1995164,15.1607601 C11.0265358,15.4354293 11.9347482,15.343539 12.6869305,14.9090909 L13.8187039,18.1138139 C13.8833621,18.2985324 13.8316182,18.5032072 13.686421,18.6370632 C13.5412239,18.7709192 13.3294524,18.8091768 13.1450293,18.7348685 L11.5530842,18.0955476 Z M5.77507679,19.671703 L6.92307692,16.4207732 C6.11107033,16.2975502 5.38464653,15.8577652 4.9094058,15.2016746 C4.89068113,15.1761565 4.8605432,15.1610296 4.82844377,15.161038 L4.79730452,15.161038 C3.96904653,15.4360104 3.0594738,15.3440187 2.30616499,14.9090909 L1.1810003,18.1173522 C1.11684513,18.3017921 1.1685251,18.5059106 1.31324877,18.6396893 C1.45797243,18.7734679 1.66913366,18.8123126 1.85360798,18.7390925 L3.45001323,18.0990657 C3.66659209,18.0137193 3.91411681,18.1011794 4.02505127,18.3022488 L4.87203871,19.7631354 C4.97437135,19.9258509 5.16283038,20.0168802 5.35703208,19.9973965 C5.55123379,19.9779128 5.71690456,19.8513546 5.78338059,19.671703 L5.77507679,19.671703 Z M0.319501918,8.36644555 C0.740875634,7.82374355 0.740875634,7.08128544 0.319501918,6.53858344 C0.00760848005,6.1398988 -0.0824076361,5.62126931 0.0780839745,5.14764956 C0.238575585,4.67402982 0.629595648,4.30437978 1.12677685,4.15626984 C1.8028524,3.95452921 2.26049112,3.3527496 2.25271294,2.67570153 C2.24772381,2.17915021 2.49489776,1.71111356 2.91579382,1.42012359 C3.33668988,1.12913362 3.87904698,1.05132146 4.37074743,1.21138089 C4.53564501,1.26492233 4.70858118,1.29236282 4.88272969,1.29261921 C5.40265241,1.29283298 5.89042947,1.05210264 6.19136485,0.646774597 C6.49208754,0.241094377 6.9798998,-4.50963243e-17 7.5,0 C8.0201002,4.50963243e-17 8.50791246,0.241094377 8.80863515,0.646774597 C9.10957053,1.05210264 9.59734759,1.29283298 10.1172703,1.29261921 C10.2914188,1.29236282 10.464355,1.26492233 10.6292526,1.21138089 C11.1228104,1.04846205 11.6684533,1.12575092 12.0913924,1.41848913 C12.5143315,1.71122734 12.7614773,2.18266894 12.7536603,2.68179441 C12.7478395,3.35494402 13.2019436,3.95300362 13.8732231,4.15626984 C14.368966,4.30482456 14.7587398,4.67373078 14.9190985,5.14615148 C15.0794573,5.61857217 14.9905363,6.1359859 14.6804981,6.53452153 C14.2591244,7.07722353 14.2591244,7.81968163 14.6804981,8.36238363 C14.9923915,8.76106828 15.0824076,9.27969777 14.921916,9.75331751 C14.7614244,10.2269373 14.3704044,10.5965873 13.8732231,10.7446972 C13.1971476,10.9464379 12.7395089,11.5482175 12.7472871,12.2252655 C12.7551041,12.724391 12.5079582,13.1958326 12.0850192,13.4885708 C11.6620801,13.781309 11.1164372,13.8585979 10.6228793,13.6956791 C9.95170624,13.4795774 9.21172348,13.7098849 8.80226193,14.2623163 C8.50153924,14.6679965 8.01372698,14.9090909 7.49362678,14.9090909 C6.97352657,14.9090909 6.48571431,14.6679965 6.18499162,14.2623163 C5.77553008,13.7098849 5.03554732,13.4795774 4.36437421,13.6956791 C3.87081633,13.8585979 3.32517344,13.781309 2.90223438,13.4885708 C2.47929532,13.1958326 2.23214949,12.724391 2.23996649,12.2252655 C2.2494739,11.5515241 1.79780416,10.9507928 1.12677685,10.7446972 C0.631033979,10.5961425 0.241260173,10.2272363 0.0809014581,9.7548156 C-0.079457257,9.2823949 0.00946367006,8.76498118 0.319501918,8.36644555 Z M5.23582838,8.29490574 L5.5748014,8.63481805 L6.16365837,9.21416546 C6.48949551,9.53467212 7.01770808,9.53467212 7.34354522,9.21416546 L7.9324022,8.63481805 L9.37955623,7.21103439 C9.69729719,6.88915003 9.69348466,6.37590486 9.37099581,6.05862394 C9.04850696,5.74134302 8.52683724,5.73759207 8.19966938,6.05020176 L6.76120696,7.47826105 L6.41571523,7.13834874 C6.08854738,6.82573904 5.56687766,6.82949 5.24438881,7.14677092 C4.92189995,7.46405183 4.91808743,7.97729701 5.23582838,8.29918136 L5.23582838,8.29490574 Z" id="Shape"></path>
            </g>
        </g>
    </g>
</svg>