<?xml version="1.0" encoding="UTF-8"?>
<svg width="38px" height="38px" viewBox="0 0 38 38" version="1.1" xmlns="http://www.w3.org/2000/svg" xmlns:xlink="http://www.w3.org/1999/xlink">
    <!-- Generator: Sketch 53.1 (72631) - https://sketchapp.com -->
    <title>Group 5@1x</title>
    <desc>Created with Sketch.</desc>
    <g id="UI-Screens" stroke="none" stroke-width="1" fill="none" fill-rule="evenodd">
        <g id="Group-5">
            <circle id="Oval-Copy-3" fill="#F6F7FB" cx="19" cy="19" r="19"></circle>
            <path d="M25.0094811,16.8206862 L24.9695831,16.8206862 C25.004277,16.868189 25.0372362,16.9162855 25.0684606,16.9649758 C25.3925846,17.4700242 25.55789,18.0650884 25.5420318,18.669731 L25.5420318,22.0347075 C25.5420318,22.4282332 25.2313724,22.7472488 24.8481546,22.7472488 L23.9721347,22.7472488 C23.5889169,22.7472488 23.2782575,22.4282332 23.2782575,22.0347075 L23.2782575,21.5003015 L22.7578497,21.5003015 C22.7372234,21.2419013 22.6930853,20.9860515 22.626013,20.7361009 C22.9996434,20.395198 23.2178163,19.9096675 23.2279514,19.3965232 C23.2279514,19.1774167 23.2279514,18.9975 23.2279514,18.8300528 C23.2033981,17.8644499 22.447421,17.0873556 21.5071361,17.0611689 L21.2209117,17.0611689 L21.2035648,17.0611689 C21.1457417,17.0611689 21.0879186,17.0641378 21.0300955,17.0700757 C20.8384808,16.6053627 20.6104891,16.1573691 20.3483612,15.730498 C19.8043207,14.9567251 18.974488,14.4465922 18.0533624,14.3196661 C17.230303,14.1853553 16.3973231,14.1257465 15.5640781,14.1415308 C15.3767312,14.1415308 15.1876497,14.1415308 14.9950988,14.1415308 C15.1466969,13.7776526 15.3253186,13.426284 15.5293842,13.0905323 C15.9076547,12.5635166 16.4816977,12.2210484 17.1148935,12.1446337 C17.8796801,12.0292373 18.6528292,11.982745 19.4255045,12.0056881 L19.4255045,12.0056881 C20.195694,11.9879797 20.965921,12.0392391 21.7274421,12.1588845 C22.3606379,12.2352993 22.9346809,12.5777674 23.3129514,13.1047831 C23.5714206,13.4842114 23.9825429,14.4336727 24.3086651,15.2655647 C24.5115346,15.0520408 24.7852921,14.9248366 25.0753994,14.9092941 L25.3286646,14.9092941 C25.7019036,14.9132102 26.0019195,15.2260725 25.9999908,15.6093659 C25.9999908,15.7572183 25.9999908,15.9157587 25.9999908,16.1099262 C25.993501,16.5006582 25.6866108,16.8158032 25.3061136,16.8224676 L25.0094811,16.8206862 Z M9,19.3769283 C9,19.1827608 9,19.0206576 9,18.876368 C9.00465308,18.4993041 9.30068291,18.1945219 9.66785678,18.1887656 L9.92112195,18.1887656 C10.2112292,18.2043082 10.4849867,18.3315123 10.6878562,18.5450363 C11.0157132,17.7095815 11.4268354,16.7636829 11.68357,16.3824733 C12.0618405,15.8554576 12.6358835,15.5129894 13.2690793,15.4365747 C14.0312349,15.3107605 14.8026346,15.2535398 15.5744862,15.2655647 L15.5744862,15.2655647 C16.3446757,15.2478563 17.1149027,15.2991157 17.8764237,15.4187611 C18.5096196,15.4951759 19.0836626,15.837644 19.4619331,16.3646598 C19.7186676,16.7458694 20.1297899,17.6935494 20.4576468,18.5272227 C20.6605163,18.3136988 20.9342738,18.1864946 21.2243811,18.1709521 L21.4776463,18.1709521 C21.8448201,18.1767084 22.14085,18.4814905 22.1455031,18.8585544 C22.1455031,19.0064068 22.1455031,19.1649472 22.1455031,19.3591147 C22.1390133,19.7498467 21.8321231,20.0649917 21.4516259,20.0716561 L21.1168301,20.0716561 C21.151524,20.1191588 21.1844832,20.1672554 21.2157076,20.2159457 C21.5398316,20.720994 21.705137,21.3160582 21.6892788,21.9207008 L21.6892788,25.2874587 C21.6892788,25.6809844 21.3786194,26 20.9954016,26 L20.1193817,26 C19.7361639,26 19.4255045,25.6809844 19.4255045,25.2874587 L19.4255045,24.7530527 L11.7130597,24.7530527 L11.7130597,25.2874587 C11.7130597,25.6809844 11.4024004,26 11.0191826,26 L10.1396933,26 C9.75647548,26 9.44581608,25.6809844 9.44581608,25.2874587 L9.44581608,21.936733 C9.42995787,21.3320904 9.59526328,20.7370262 9.91938725,20.2319779 C9.95061173,20.1832875 9.98357089,20.135191 10.0182648,20.0876882 L9.69387717,20.0876882 C9.31404016,20.081053 9.00741221,19.7669644 9,19.3769283 Z M17.609281,21.7461282 C17.6092795,22.0484487 17.8474317,22.2938035 18.1418318,22.294785 L19.4081576,22.294785 C19.6978019,22.2870569 19.9286632,22.0436638 19.9285655,21.7461282 L19.9285655,21.4076711 C19.9302304,21.237165 19.8543525,21.075619 19.7233736,20.9708123 C19.5923948,20.8660056 19.4213059,20.8299336 19.2607087,20.8732651 L18.004791,21.2117222 C17.7708603,21.2774106 17.6096919,21.4971057 17.6127504,21.7461282 L17.609281,21.7461282 Z M11.2082641,21.7461282 C11.2078031,21.891477 11.2637073,22.031035 11.36363,22.1339796 C11.4635526,22.2369243 11.5992725,22.2947858 11.7408148,22.294785 L12.9967325,22.294785 C13.2556688,22.2836938 13.4692352,22.082797 13.502645,21.8188853 C13.5360549,21.5549735 13.3796067,21.304681 13.1320386,21.225973 L11.8761209,20.8875159 C11.7155237,20.8441844 11.5444348,20.8802564 11.413456,20.9850631 C11.2824771,21.0898698 11.2065992,21.2514159 11.2082641,21.4219219 L11.2082641,21.7461282 Z" id="Shape" fill="#8595A6" fill-rule="nonzero"></path>
        </g>
    </g>
</svg>