<svg xmlns="http://www.w3.org/2000/svg" width="38" height="38" viewBox="0 0 38 38">
  <defs>
    <linearGradient id="human-assistance-on-a" x1="8.665%" x2="79.756%" y1="0%" y2="89.425%">
      <stop offset="0%" stop-color="#656BFF"/>
      <stop offset="100%" stop-color="#9F57FF"/>
    </linearGradient>
  </defs>
  <g fill="none" fill-rule="evenodd">
    <circle cx="19" cy="19" r="19" fill="url(#human-assistance-on-a)"/>
    <path fill="#FFF" fill-rule="nonzero" d="M26.8832751,22.7700364 C26.7612038,21.9481128 26.460199,21.1648695 26.0025648,20.4783432 C25.5313075,19.8292281 24.8051077,19.7263196 24.0982217,19.6867394 C23.9862015,19.6867394 23.8587303,19.6867394 23.7119452,19.6867394 L22.8891763,19.6867394 C22.5374311,19.7012332 22.1856162,19.6598435 21.8462299,19.5640408 C21.6569563,19.4994113 21.5119043,19.3418646 21.4599534,19.1444908 C21.4166967,18.9995305 21.394569,18.8488194 21.3942864,18.6972346 C21.5101693,18.5943261 21.6183267,18.4914176 21.7264842,18.380593 C22.2417451,17.8303831 22.599814,17.1458703 22.7617051,16.4015834 C23.0245469,16.2209305 23.2438224,15.9813591 23.4029241,15.701014 C23.585508,15.4024997 23.6657075,15.050113 23.6308272,14.6996351 C23.5727018,14.2674261 23.2879366,13.9026918 22.8891763,13.7497105 L22.8891763,13.0966373 C22.8891763,13.0966373 22.8891763,13.0966373 22.8891763,13.0966373 C22.8891763,13.0966373 22.8891763,13.0768472 22.8891763,13.0649732 C22.8812037,11.9905206 22.4704658,10.9603185 21.7419352,10.1874932 C21.0242628,9.42229701 20.0312154,8.99295708 18.9955095,9.00008742 C17.9637307,8.99575074 16.975303,9.42490411 16.260672,10.1874932 C15.5417565,10.9571266 15.1380914,11.979843 15.1327447,13.0451831 C15.1327447,13.0451831 15.1327447,13.3539086 15.1327447,13.7497105 C14.7197247,13.8944219 14.4211028,14.2646647 14.3601917,14.7075512 C14.3261951,15.0501454 14.4021377,15.3947562 14.5765066,15.6891399 C14.738286,15.972138 14.9600648,16.2142651 15.225451,16.3976254 C15.3871717,17.1411357 15.7437558,17.8253628 16.2568092,18.376635 C16.3649666,18.4914176 16.4731241,18.5903681 16.5851442,18.6893185 C16.586992,18.8475457 16.5648388,19.0051067 16.5194772,19.1563648 C16.4675263,19.3537387 16.3224743,19.5112853 16.1332008,19.5759149 C15.7938144,19.6717176 15.4419995,19.7131072 15.0902543,19.6986134 L14.2867992,19.6986134 C14.1322886,19.6986134 14.0048174,19.6986134 13.9005227,19.6986134 C13.1936368,19.7500677 12.4712998,19.8529762 11.9961797,20.4902173 C11.5396149,21.1744049 11.2386557,21.9548247 11.1154693,22.7739944 C10.9517081,23.597887 10.9622456,24.4481805 11.1463714,25.2675465 C11.1548264,25.2927687 11.1665171,25.3167268 11.1811363,25.3387909 C11.6397656,25.9042674 12.2097134,26.3641863 12.8537135,26.6884754 C13.6024693,27.0999248 14.4013549,27.4073936 15.2293138,27.6027779 C16.4369296,27.8825608 17.6725375,28.0154126 18.9105286,27.9985798 L18.9491563,27.9985798 L18.9955095,27.9985798 L19.0418626,27.9985798 L19.0804903,27.9985798 C20.3197567,28.0153926 21.5566411,27.882543 22.7655679,27.6027779 C23.5913483,27.4098434 24.3887692,27.1064307 25.1373054,26.7003495 C25.7831565,26.3737379 26.355439,25.9127103 26.8176081,25.3467069 C26.8322273,25.3246429 26.8439181,25.3006848 26.852373,25.2754626 C27.0381776,24.4522888 27.0487174,23.5977587 26.8832751,22.7700364 Z M20.7959184,19.5970329 C20.6654927,20.7269597 20.2438997,21.8065663 19.5702237,22.7357658 L19.1042247,20.5759824 L19.5193162,19.9093825 C19.2488274,19.9813237 18.9695483,20.0172035 18.6891332,20.0160385 C18.4248152,20.019382 18.1612808,19.9873387 17.9059417,19.9208099 L18.2818736,20.5759824 L17.8080428,22.7586207 C17.7140598,22.6214916 17.6279087,22.4805533 17.5417577,22.3396151 C17.2716726,21.8922677 17.0473874,21.4202097 16.8721289,20.9302326 C16.7097811,20.5012323 16.6083368,20.0526998 16.5706002,19.5970329 C16.5671688,19.5660093 16.5606107,19.5353889 16.5510204,19.5056135 L16.5510204,19.4637129 C16.5856433,19.3635737 16.6092707,19.2601506 16.6215076,19.1551724 C17.2192782,19.5388171 17.9181846,19.7464732 18.6343098,19.7532077 C18.6589535,19.7570517 18.6840694,19.7570517 18.708713,19.7532077 C19.4223225,19.7491412 20.1196716,19.5455107 20.7175992,19.1665998 C20.7317438,19.267519 20.7553376,19.36697 20.7880865,19.4637129 C20.7864033,19.4789055 20.7864033,19.49423 20.7880865,19.5094226 C20.7818547,19.5383115 20.7818547,19.568144 20.7880865,19.5970329 L20.7959184,19.5970329 Z M18.8347724,18.8275862 C18.0287378,18.8004944 17.266112,18.4361943 16.7154042,17.8151814 C16.1646964,17.1941685 15.8712391,16.3675626 15.8998742,15.5180097 L15.8998742,14.0470868 L16.9388434,11.2931034 C16.9388434,11.2931034 17.5076221,12.4242751 19.1570803,12.4922254 C20.1236952,12.5735665 21.0403812,12.9782909 21.7734624,13.6473795 L21.7734624,15.5140126 C21.8031214,16.3649154 21.5096098,17.1931478 20.9579781,17.8151503 C20.4063463,18.4371527 19.6421558,18.8015517 18.8347724,18.8275862 Z"/>
  </g>
</svg>
