<svg xmlns="http://www.w3.org/2000/svg" width="27" height="15" viewBox="0 0 27 15">
  <path fill="#FFF" d="M225.02018,17.9516601 C225.12303,18.1723089 225.590191,18.1888077 226.063619,17.988505 C226.115077,17.9667327 226.164051,17.9430467 226.21112,17.9182808 C226.21112,21.2690217 226.21112,25.7473943 226.21112,26.1771428 C226.21112,26.8714277 226.373066,30.2142845 226.373066,30.2142845 C226.373066,30.2142845 226.615983,32.0657138 226.723947,32.9399996 C226.831911,33.8142854 226.993856,34.7914267 227.938538,35.2799985 C228.88322,35.7685702 232.5,36 232.5,36 C232.5,36 236.116781,35.7685702 237.061462,35.2799985 C238.006144,34.7914267 238.16809,33.8142855 238.276054,32.9399996 C238.384016,32.0657138 238.626935,30.2142845 238.626935,30.2142845 C238.626935,30.2142845 238.788882,26.8714277 238.788882,26.1771428 C238.788882,25.7473943 238.788882,21.2690218 238.788882,17.9182808 C238.835951,17.9430467 238.884924,17.9667327 238.936382,17.9885051 C239.409809,18.1888077 239.876972,18.1723089 239.97982,17.9516601 C240.082671,17.7310102 239.782266,17.3897692 239.308844,17.1894721 C239.127888,17.1129072 238.948019,17.0682777 238.788882,17.0543596 C238.788882,15.4170703 238.788882,14.2199999 238.788882,14.2199999 C238.788882,14.2199999 238.965178,11.4726269 237.430341,10.3714264 C235.972832,9.32571634 235.415018,9.08571212 234.389364,9 L230.610637,9 C229.584982,9.08571215 229.027168,9.32571637 227.56966,10.3714264 C226.034822,11.4726269 226.21112,14.2199999 226.21112,14.2199999 C226.21112,14.2199999 226.21112,15.4170703 226.21112,17.0543596 C226.051982,17.0682777 225.872113,17.1129072 225.691156,17.1894721 C225.217735,17.3897692 224.917329,17.7310101 225.02018,17.9516601 Z M232.213018,33.4999998 L231.786982,33.4999998 C231.786982,33.4999998 228.804454,33.502808 227.5,32.7500001 L227.68639,29.5 C227.68639,29.5 229.150887,30.0681826 231.786982,30.0000005 L232.213018,30.0000005 C234.849113,30.0681826 236.313611,29.5 236.313611,29.5 L236.5,32.7500001 C235.195546,33.5028081 232.213018,33.4999998 232.213018,33.4999998 Z M237.040801,11.0408012 C237.149881,10.9317211 237.443898,11.0488871 237.697504,11.3024947 C237.951112,11.5561023 238.068279,11.8501191 237.959199,11.9591988 C237.850118,12.0682789 237.556102,11.9511129 237.302494,11.6975053 C237.048887,11.4438963 236.931721,11.1498809 237.040801,11.0408012 Z M231.995594,14.0034762 L233.004405,14.0034762 C233.004405,14.0034762 234.237397,13.9277715 236.226997,14.4829409 C238.216597,15.0381104 237.992418,16.1989185 237.992418,16.1989185 L237.347898,19 C235.890727,18.5205353 232.72418,18.5205353 232.72418,18.5205353 L232.275819,18.5205353 C232.275819,18.5205353 229.109273,18.5205353 227.6521,19 L227.007582,16.1989185 C227.007582,16.1989185 226.783402,15.0381099 228.773002,14.4829409 C230.762601,13.927772 231.995594,14.0034762 231.995594,14.0034762 Z M227.302495,11.3024947 C227.556103,11.0488871 227.85012,10.9317211 227.959199,11.0408012 C228.068278,11.1498809 227.951114,11.4438963 227.697506,11.6975053 C227.443893,11.9511129 227.149876,12.0682789 227.040802,11.9591988 C226.931722,11.8501191 227.048883,11.5561023 227.302495,11.3024947 Z" transform="rotate(90 130.5 -94.5)"/>
</svg>
